<svg width="32" height="32" viewBox="0 0 32 32" fill="none" xmlns="http://www.w3.org/2000/svg">
<path d="M21.3333 26.6667H10.6667C9.6058 26.6667 8.58839 26.2453 7.83824 25.4951C7.08809 24.745 6.66667 23.7276 6.66667 22.6667V9.33335C6.66667 8.97973 6.52619 8.64059 6.27614 8.39054C6.02609 8.1405 5.68696 8.00002 5.33333 8.00002C4.97971 8.00002 4.64057 8.1405 4.39052 8.39054C4.14048 8.64059 4 8.97973 4 9.33335V22.6667C4 24.4348 4.70238 26.1305 5.95262 27.3807C7.20286 28.631 8.89856 29.3334 10.6667 29.3334H21.3333C21.687 29.3334 22.0261 29.1929 22.2761 28.9428C22.5262 28.6928 22.6667 28.3536 22.6667 28C22.6667 27.6464 22.5262 27.3073 22.2761 27.0572C22.0261 26.8072 21.687 26.6667 21.3333 26.6667ZM28 11.92C27.9861 11.7975 27.9593 11.6769 27.92 11.56V11.44C27.8559 11.3029 27.7704 11.1769 27.6667 11.0667L19.6667 3.06669C19.5564 2.96298 19.4304 2.87746 19.2933 2.81335H19.1733L18.7467 2.66669H13.3333C12.2725 2.66669 11.2551 3.08811 10.5049 3.83826C9.75476 4.58841 9.33333 5.60582 9.33333 6.66669V20C9.33333 21.0609 9.75476 22.0783 10.5049 22.8284C11.2551 23.5786 12.2725 24 13.3333 24H24C25.0609 24 26.0783 23.5786 26.8284 22.8284C27.5786 22.0783 28 21.0609 28 20V12C28 12 28 12 28 11.92ZM20 7.21335L23.4533 10.6667H21.3333C20.9797 10.6667 20.6406 10.5262 20.3905 10.2762C20.1405 10.0261 20 9.68698 20 9.33335V7.21335ZM25.3333 20C25.3333 20.3536 25.1929 20.6928 24.9428 20.9428C24.6928 21.1929 24.3536 21.3334 24 21.3334H13.3333C12.9797 21.3334 12.6406 21.1929 12.3905 20.9428C12.1405 20.6928 12 20.3536 12 20V6.66669C12 6.31306 12.1405 5.97393 12.3905 5.72388C12.6406 5.47383 12.9797 5.33335 13.3333 5.33335H17.3333V9.33335C17.3333 10.3942 17.7548 11.4116 18.5049 12.1618C19.2551 12.9119 20.2725 13.3334 21.3333 13.3334H25.3333V20Z" fill="#F2E9B8"/>
</svg>
